<svg width="120" height="120" viewBox="0 0 120 120" fill="none" xmlns="http://www.w3.org/2000/svg">
<rect width="120" height="120" rx="8" fill="url(#paint0_linear_142_306)"/>
<g filter="url(#filter0_i_142_306)">
<path d="M19.336 85.936V41.392H21.832L52.936 71.664V41.392H55.304V85.936H19.336ZM84.375 87.152C78.1883 87.152 73.4097 85.7013 70.039 82.8C66.711 79.856 65.0683 75.4613 65.111 69.616H75.543C75.5003 72.048 76.2257 73.904 77.719 75.184C79.2123 76.464 81.303 77.104 83.991 77.104C86.2097 77.104 87.959 76.7413 89.239 76.016C90.519 75.2907 91.159 74.1813 91.159 72.688C91.159 71.4507 90.4977 70.5547 89.175 70C87.895 69.4453 86.615 69.0613 85.335 68.848C84.055 68.592 83.2657 68.4427 82.967 68.4C79.6817 67.76 76.8443 66.992 74.455 66.096C72.0657 65.1573 70.0603 63.7493 68.439 61.872C66.8177 59.9947 66.007 57.52 66.007 54.448C66.007 51.376 66.8177 48.7733 68.439 46.64C70.0603 44.464 72.215 42.8427 74.903 41.776C77.6337 40.7093 80.599 40.176 83.799 40.176C87.6817 40.176 91.031 40.9013 93.847 42.352C96.7057 43.8027 98.9457 46 100.567 48.944C101.378 50.352 101.868 51.7173 102.039 53.04C102.21 54.32 102.295 55.5787 102.295 56.816H91.863C91.863 54.512 91.2443 52.8267 90.007 51.76C88.7697 50.6507 86.8497 50.096 84.247 50.096C82.1563 50.096 80.535 50.4587 79.383 51.184C78.231 51.9093 77.655 52.8907 77.655 54.128C77.655 55.4933 78.423 56.496 79.959 57.136C81.495 57.776 83.4363 58.352 85.783 58.864C89.623 59.632 92.6097 60.3787 94.743 61.104C96.919 61.7867 98.7963 63.024 100.375 64.816C101.954 66.608 102.743 69.1253 102.743 72.368C102.743 75.44 101.89 78.0853 100.183 80.304C98.4763 82.5227 96.215 84.2293 93.399 85.424C90.6257 86.576 87.6177 87.152 84.375 87.152Z" fill="white"/>
</g>
<defs>
<filter id="filter0_i_142_306" x="19.3359" y="40.176" width="83.4062" height="46.9761" filterUnits="userSpaceOnUse" color-interpolation-filters="sRGB">
<feFlood flood-opacity="0" result="BackgroundImageFix"/>
<feBlend mode="normal" in="SourceGraphic" in2="BackgroundImageFix" result="shape"/>
<feColorMatrix in="SourceAlpha" type="matrix" values="0 0 0 0 0 0 0 0 0 0 0 0 0 0 0 0 0 0 127 0" result="hardAlpha"/>
<feOffset/>
<feGaussianBlur stdDeviation="2"/>
<feComposite in2="hardAlpha" operator="arithmetic" k2="-1" k3="1"/>
<feColorMatrix type="matrix" values="0 0 0 0 0 0 0 0 0 0 0 0 0 0 0 0 0 0 0.5 0"/>
<feBlend mode="normal" in2="shape" result="effect1_innerShadow_142_306"/>
</filter>
<linearGradient id="paint0_linear_142_306" x1="60" y1="0" x2="60" y2="120" gradientUnits="userSpaceOnUse">
<stop stop-color="#333333"/>
<stop offset="1" stop-color="#111111"/>
</linearGradient>
</defs>
</svg>
